<svg version="1.1" id="Layer_1" xmlns="http://www.w3.org/2000/svg" xmlns:xlink="http://www.w3.org/1999/xlink" x="0px" y="0px"
	 width="48" height="48" viewBox="0 0 1024 1024" enable-background="new 0 0 1024 1024" xml:space="preserve">
<path fill="#1975d2" opacity="1.000000" stroke="none" 
	d="
M470.065857,814.308777 
	C447.518127,819.815674 425.072540,823.262817 402.379089,825.489441 
	C381.604828,827.527710 360.787323,827.935852 340.014099,827.142761 
	C316.244904,826.235291 292.629486,823.416809 270.233459,814.463440 
	C268.791962,813.887268 266.930237,813.878052 266.155487,811.527283 
	C269.862305,810.556824 273.413483,811.589661 276.828552,811.942200 
	C299.598755,814.292358 322.315338,813.695435 345.086029,811.789551 
	C400.617523,807.141663 452.177673,789.036255 502.237518,765.824463 
	C546.067932,745.501160 587.316650,720.792419 625.881165,691.696777 
	C665.655518,661.688416 702.175659,628.162048 733.667053,589.434631 
	C760.404053,556.554199 781.511047,520.535400 792.922852,479.367126 
	C799.208557,456.691162 801.613647,433.493195 799.428711,410.144348 
	C797.184021,386.156097 791.099426,363.032440 779.130066,341.777008 
	C777.735535,339.300537 775.961426,337.746948 773.361145,336.642883 
	C758.604675,330.377319 743.198242,327.715424 727.221802,327.266479 
	C688.751892,326.185455 652.394897,335.270294 617.106018,349.628052 
	C567.166138,369.946808 521.534790,398.138123 476.559235,427.391663 
	C438.104340,452.403961 401.338440,479.748993 368.000580,511.391296 
	C341.466522,536.575806 318.605835,564.559814 303.759918,598.466614 
	C295.235474,617.935669 291.516541,638.175232 293.431396,659.294312 
	C295.274963,679.626770 303.877258,696.988586 318.307678,711.355103 
	C336.855164,729.820496 359.868225,739.769226 384.944031,745.582153 
	C404.294403,750.067871 423.939728,751.893799 443.777222,751.636230 
	C455.760498,751.480652 467.769562,752.357666 479.725159,750.748779 
	C481.652832,750.489319 483.698456,750.288147 486.590027,751.555908 
	C478.955200,754.280945 472.124634,756.921265 465.166656,759.166809 
	C437.440948,768.114563 409.015167,772.953430 379.851990,772.876099 
	C349.413544,772.795410 321.008667,765.645020 296.906921,746.227417 
	C276.617462,729.881165 264.365173,708.549011 261.646057,682.395386 
	C257.372650,641.291870 268.820099,604.420349 292.532257,571.011597 
	C293.880005,569.112732 295.249786,567.217041 295.493073,564.521790 
	C291.923004,562.392822 287.715698,563.079590 283.936798,562.680176 
	C262.859497,560.452393 239.393860,540.195618 233.724701,515.472717 
	C232.345688,509.458893 231.569443,503.407745 231.609314,497.192291 
	C231.748337,475.526978 231.639099,453.860199 231.688141,432.194153 
	C231.757660,401.486176 254.866684,375.444977 285.219879,371.458099 
	C289.711639,370.868103 294.152191,370.661987 298.635437,370.659607 
	C332.634644,370.641602 366.633881,370.650146 400.633087,370.646149 
	C409.019379,370.645172 409.561493,370.130737 409.570007,361.483643 
	C409.604675,326.318054 409.418610,291.151093 409.681854,255.987366 
	C409.899872,226.862503 431.383636,200.986694 459.931580,194.689270 
	C463.196930,193.968964 466.457886,193.611298 469.813812,193.620590 
	C491.479797,193.680588 513.146057,193.637146 534.812195,193.650223 
	C565.720947,193.668884 592.321533,215.453110 597.986755,245.719284 
	C599.172302,252.052887 599.364807,258.568115 599.318848,265.082336 
	C599.134583,291.246887 599.176453,317.413086 599.156372,343.578674 
	C599.154724,345.696564 598.951721,347.872864 599.835815,349.814423 
	C602.550598,350.577332 604.220642,348.899292 606.055115,347.931549 
	C632.286499,334.093201 658.621338,320.479919 686.686096,310.607544 
	C706.578064,303.610077 726.927124,298.959167 748.134644,298.730530 
	C749.901184,298.711487 752.144104,299.298859 753.159485,297.379822 
	C754.284241,295.253906 752.398438,293.634735 751.335144,292.042725 
	C734.712524,267.156250 714.244263,245.855545 690.842590,227.297180 
	C661.879089,204.327972 629.453308,188.081726 594.020386,177.836792 
	C576.779724,172.851868 559.109741,169.668335 541.478821,166.386353 
	C540.392273,166.184097 539.126160,166.356171 538.648499,164.939621 
	C539.433960,163.221100 540.941895,163.697815 542.137756,163.701614 
	C561.438660,163.762939 580.706665,163.496445 599.999268,165.466629 
	C657.868469,171.376328 707.919373,193.935165 750.053833,234.092804 
	C786.219055,268.561310 812.716248,309.194702 827.653992,356.954742 
	C833.097473,374.359222 835.952271,392.398590 837.484741,410.658417 
	C839.375122,433.183929 838.282288,455.571350 834.118347,477.650604 
	C828.349976,508.237061 817.600098,537.220215 803.270935,564.879089 
	C781.897705,606.134949 753.516724,642.044128 720.296875,674.311218 
	C678.203674,715.197144 630.218628,747.611938 577.631042,773.336487 
	C543.161804,790.197998 507.634186,804.381958 470.065857,814.308777 
z"/>
<path fill="#1975d2" opacity="1.000000" stroke="none" 
	d="
M409.083801,625.000000 
	C409.093506,606.839539 409.118591,589.179016 409.106445,571.518555 
	C409.101501,564.325928 408.182190,563.382080 401.096313,563.367554 
	C387.931976,563.340576 374.767334,563.404724 361.603241,563.343384 
	C359.714508,563.334595 357.637390,563.961426 355.522675,562.192749 
	C360.786713,555.893311 366.659454,550.347351 372.636932,544.934814 
	C413.019623,508.368713 457.071564,476.673309 503.054626,447.645935 
	C548.333862,419.062897 595.475830,393.937164 644.934021,373.270905 
	C649.150208,371.509125 653.360535,370.521912 657.992310,370.586365 
	C671.487366,370.774170 684.986816,370.635040 698.484497,370.654663 
	C728.768188,370.698761 752.636902,389.404572 759.713989,418.771576 
	C760.719482,422.943909 761.351929,427.212402 761.339905,431.574799 
	C761.276489,454.570709 761.322876,477.566864 761.318237,500.562958 
	C761.311890,531.919250 736.481934,559.271729 705.255432,562.448120 
	C686.966370,564.308533 668.636780,563.011780 650.328491,563.305908 
	C636.167908,563.533447 622.000732,563.338379 607.836487,563.348206 
	C599.910950,563.353760 599.145996,564.092529 599.142639,571.838074 
	C599.127380,607.331726 598.994324,642.826355 599.257263,678.317993 
	C599.298950,683.949585 597.279724,687.140442 592.690796,689.926147 
	C567.631042,705.138550 542.513489,720.244446 516.845276,734.419006 
	C514.575562,735.672485 512.299011,736.298584 509.721497,736.290833 
	C495.557526,736.248230 481.390411,736.462036 467.229889,736.238525 
	C436.938354,735.760559 410.782471,709.737915 409.564148,679.471008 
	C408.839935,661.478088 409.241150,643.489807 409.083801,625.000000 
z"/>
</svg>